<?xml version="1.0" encoding="utf-8"?>
<!-- Generator: Adobe Illustrator 22.1.0, SVG Export Plug-In . SVG Version: 6.00 Build 0)  -->
<svg version="1.1" xmlns="http://www.w3.org/2000/svg" xmlns:xlink="http://www.w3.org/1999/xlink" x="0px" y="0px"
	 viewBox="0 0 24 24" enable-background="new 0 0 24 24" xml:space="preserve">
<g id="レイヤー_2">
</g>
<g id="ガイド">
</g>
<g id="レイヤー_3">
	<g>
		<polygon fill="none" points="8.367,13.18 6.122,20.09 6.122,20.09 		"/>
		<path d="M15.045,13.607c0.35-0.255,0.497-0.706,0.363-1.118l-2.457-7.562c-0.299-0.921-1.603-0.921-1.902,0L7.073,17.163
			c-0.299,0.921,0.755,1.687,1.539,1.118L15.045,13.607z"/>
	</g>
	<g>
		<polygon fill="none" points="16.827,16.854 14.552,15.202 13.701,15.82 17.352,18.472 		"/>
		<path d="M16.927,17.163l-0.544-1.674c-0.21-0.646-0.989-0.899-1.539-0.5l-0.88,0.639c-0.55,0.399-0.55,1.219,0,1.618l1.424,1.034
			C16.172,18.851,17.226,18.084,16.927,17.163z"/>
	</g>
</g>
<g id="レイヤー_7">
</g>
<g id="レイヤー_9">
</g>
<g id="レイヤー_7のコピー" display="none">
</g>
<g id="レイヤー_6" display="none">
</g>
<g id="レイヤー_4">
</g>
<g id="レイヤー_5">
</g>
</svg>
